<?xml version="1.0" encoding="utf-8" standalone="no"?>
<!DOCTYPE svg PUBLIC "-//W3C//DTD SVG 1.1//EN"
  "http://www.w3.org/Graphics/SVG/1.1/DTD/svg11.dtd">
<!-- Created with matplotlib (https://matplotlib.org/) -->
<svg height="324pt" version="1.1" viewBox="0 0 540 324" width="540pt" xmlns="http://www.w3.org/2000/svg" xmlns:xlink="http://www.w3.org/1999/xlink">
 <defs>
  <style type="text/css">
*{stroke-linecap:butt;stroke-linejoin:round;}
  </style>
 </defs>
 <g id="figure_1">
  <g id="patch_1">
   <path d="M 0 324 
L 540 324 
L 540 0 
L 0 0 
z
" style="fill:#ffffff;"/>
  </g>
  <g id="axes_1">
   <g id="LineCollection_1">
    <path clip-path="url(#pa21376a1fd)" d="M 62.971654 292.492913 
L 62.971654 62.886614 
" style="fill:none;stroke:#d62728;stroke-opacity:0.7;stroke-width:1.5;"/>
   </g>
   <g id="LineCollection_2">
    <path clip-path="url(#pa21376a1fd)" d="M 84.401575 292.492913 
L 84.401575 62.886614 
" style="fill:none;stroke:#d62728;stroke-opacity:0.7;stroke-width:1.5;"/>
   </g>
   <g id="LineCollection_3">
    <path clip-path="url(#pa21376a1fd)" d="M 70.625197 300.146457 
L 70.625197 292.492913 
" style="fill:none;stroke:#d62728;stroke-opacity:0.7;stroke-width:1.5;"/>
   </g>
   <g id="LineCollection_4">
    <path clip-path="url(#pa21376a1fd)" d="M 70.625197 62.886614 
L 70.625197 55.233071 
" style="fill:none;stroke:#d62728;stroke-opacity:0.7;stroke-width:1.5;"/>
   </g>
   <g id="LineCollection_5">
    <path clip-path="url(#pa21376a1fd)" d="M 346.332839 70.540157 
L 346.332839 55.233071 
" style="fill:none;stroke:#d62728;stroke-opacity:0.7;stroke-width:1.5;"/>
   </g>
   <g id="LineCollection_6">
    <path clip-path="url(#pa21376a1fd)" d="M 327.964335 70.540157 
L 327.964335 55.233071 
" style="fill:none;stroke:#d62728;stroke-opacity:0.7;stroke-width:1.5;"/>
   </g>
   <g id="line2d_1">
    <path clip-path="url(#pa21376a1fd)" d="M 506.877165 292.492913 
" style="fill:none;stroke:#1f77b4;stroke-linecap:square;stroke-width:1.5;"/>
   </g>
   <g id="text_1">
    <g id="patch_2">
     <path d="M 36.011024 293.678433 
L 50.373524 293.678433 
L 50.373524 276.000308 
L 36.011024 276.000308 
z
" style="fill:none;opacity:0;"/>
    </g>
    <!-- 2 -->
    <defs>
     <path d="M 19.1875 8.296875 
L 53.609375 8.296875 
L 53.609375 0 
L 7.328125 0 
L 7.328125 8.296875 
Q 12.9375 14.109375 22.625 23.890625 
Q 32.328125 33.6875 34.8125 36.53125 
Q 39.546875 41.84375 41.421875 45.53125 
Q 43.3125 49.21875 43.3125 52.78125 
Q 43.3125 58.59375 39.234375 62.25 
Q 35.15625 65.921875 28.609375 65.921875 
Q 23.96875 65.921875 18.8125 64.3125 
Q 13.671875 62.703125 7.8125 59.421875 
L 7.8125 69.390625 
Q 13.765625 71.78125 18.9375 73 
Q 24.125 74.21875 28.421875 74.21875 
Q 39.75 74.21875 46.484375 68.546875 
Q 53.21875 62.890625 53.21875 53.421875 
Q 53.21875 48.921875 51.53125 44.890625 
Q 49.859375 40.875 45.40625 35.40625 
Q 44.1875 33.984375 37.640625 27.21875 
Q 31.109375 20.453125 19.1875 8.296875 
z
" id="DejaVuSans-50"/>
    </defs>
    <g transform="translate(40.011024 287.598745)scale(0.1 -0.1)">
     <use xlink:href="#DejaVuSans-50"/>
    </g>
   </g>
   <g id="text_2">
    <g id="patch_3">
     <path d="M 72.806575 294.606245 
L 88.361575 294.606245 
L 88.361575 275.072495 
L 72.806575 275.072495 
z
" style="fill:none;opacity:0;"/>
    </g>
    <!-- 0 -->
    <defs>
     <path d="M 31.78125 66.40625 
Q 24.171875 66.40625 20.328125 58.90625 
Q 16.5 51.421875 16.5 36.375 
Q 16.5 21.390625 20.328125 13.890625 
Q 24.171875 6.390625 31.78125 6.390625 
Q 39.453125 6.390625 43.28125 13.890625 
Q 47.125 21.390625 47.125 36.375 
Q 47.125 51.421875 43.28125 58.90625 
Q 39.453125 66.40625 31.78125 66.40625 
z
M 31.78125 74.21875 
Q 44.046875 74.21875 50.515625 64.515625 
Q 56.984375 54.828125 56.984375 36.375 
Q 56.984375 17.96875 50.515625 8.265625 
Q 44.046875 -1.421875 31.78125 -1.421875 
Q 19.53125 -1.421875 13.0625 8.265625 
Q 6.59375 17.96875 6.59375 36.375 
Q 6.59375 54.828125 13.0625 64.515625 
Q 19.53125 74.21875 31.78125 74.21875 
z
" id="DejaVuSans-48"/>
    </defs>
    <g transform="translate(76.766575 288.15062)scale(0.12 -0.12)">
     <use xlink:href="#DejaVuSans-48"/>
    </g>
   </g>
   <g id="text_3">
    <g id="patch_4">
     <path d="M 86.022992 292.086245 
L 104.172992 292.086245 
L 104.172992 277.592495 
L 86.022992 277.592495 
z
" style="fill:#1f77b4;opacity:0.1;stroke:#000000;stroke-linejoin:miter;"/>
    </g>
    <!-- 77 -->
    <defs>
     <path d="M 8.203125 72.90625 
L 55.078125 72.90625 
L 55.078125 68.703125 
L 28.609375 0 
L 18.3125 0 
L 43.21875 64.59375 
L 8.203125 64.59375 
z
" id="DejaVuSans-55"/>
    </defs>
    <g transform="translate(87.462992 288.15062)scale(0.12 -0.12)">
     <use xlink:href="#DejaVuSans-55"/>
     <use x="63.623047" xlink:href="#DejaVuSans-55"/>
    </g>
   </g>
   <g id="text_4">
    <g id="patch_5">
     <path d="M 36.011024 278.371346 
L 50.373524 278.371346 
L 50.373524 260.693221 
L 36.011024 260.693221 
z
" style="fill:none;opacity:0;"/>
    </g>
    <!-- 6 -->
    <defs>
     <path d="M 33.015625 40.375 
Q 26.375 40.375 22.484375 35.828125 
Q 18.609375 31.296875 18.609375 23.390625 
Q 18.609375 15.53125 22.484375 10.953125 
Q 26.375 6.390625 33.015625 6.390625 
Q 39.65625 6.390625 43.53125 10.953125 
Q 47.40625 15.53125 47.40625 23.390625 
Q 47.40625 31.296875 43.53125 35.828125 
Q 39.65625 40.375 33.015625 40.375 
z
M 52.59375 71.296875 
L 52.59375 62.3125 
Q 48.875 64.0625 45.09375 64.984375 
Q 41.3125 65.921875 37.59375 65.921875 
Q 27.828125 65.921875 22.671875 59.328125 
Q 17.53125 52.734375 16.796875 39.40625 
Q 19.671875 43.65625 24.015625 45.921875 
Q 28.375 48.1875 33.59375 48.1875 
Q 44.578125 48.1875 50.953125 41.515625 
Q 57.328125 34.859375 57.328125 23.390625 
Q 57.328125 12.15625 50.6875 5.359375 
Q 44.046875 -1.421875 33.015625 -1.421875 
Q 20.359375 -1.421875 13.671875 8.265625 
Q 6.984375 17.96875 6.984375 36.375 
Q 6.984375 53.65625 15.1875 63.9375 
Q 23.390625 74.21875 37.203125 74.21875 
Q 40.921875 74.21875 44.703125 73.484375 
Q 48.484375 72.75 52.59375 71.296875 
z
" id="DejaVuSans-54"/>
    </defs>
    <g transform="translate(40.011024 272.291658)scale(0.1 -0.1)">
     <use xlink:href="#DejaVuSans-54"/>
    </g>
   </g>
   <g id="text_5">
    <g id="patch_6">
     <path d="M 72.806575 279.299158 
L 88.361575 279.299158 
L 88.361575 259.765408 
L 72.806575 259.765408 
z
" style="fill:none;opacity:0;"/>
    </g>
    <!-- 1 -->
    <defs>
     <path d="M 12.40625 8.296875 
L 28.515625 8.296875 
L 28.515625 63.921875 
L 10.984375 60.40625 
L 10.984375 69.390625 
L 28.421875 72.90625 
L 38.28125 72.90625 
L 38.28125 8.296875 
L 54.390625 8.296875 
L 54.390625 0 
L 12.40625 0 
z
" id="DejaVuSans-49"/>
    </defs>
    <g transform="translate(76.766575 272.843533)scale(0.12 -0.12)">
     <use xlink:href="#DejaVuSans-49"/>
    </g>
   </g>
   <g id="text_6">
    <g id="patch_7">
     <path d="M 86.022992 276.779158 
L 119.442992 276.779158 
L 119.442992 262.285408 
L 86.022992 262.285408 
z
" style="fill:#1f77b4;opacity:0.1;stroke:#000000;stroke-linejoin:miter;"/>
    </g>
    <!-- 2388 -->
    <defs>
     <path d="M 40.578125 39.3125 
Q 47.65625 37.796875 51.625 33 
Q 55.609375 28.21875 55.609375 21.1875 
Q 55.609375 10.40625 48.1875 4.484375 
Q 40.765625 -1.421875 27.09375 -1.421875 
Q 22.515625 -1.421875 17.65625 -0.515625 
Q 12.796875 0.390625 7.625 2.203125 
L 7.625 11.71875 
Q 11.71875 9.328125 16.59375 8.109375 
Q 21.484375 6.890625 26.8125 6.890625 
Q 36.078125 6.890625 40.9375 10.546875 
Q 45.796875 14.203125 45.796875 21.1875 
Q 45.796875 27.640625 41.28125 31.265625 
Q 36.765625 34.90625 28.71875 34.90625 
L 20.21875 34.90625 
L 20.21875 43.015625 
L 29.109375 43.015625 
Q 36.375 43.015625 40.234375 45.921875 
Q 44.09375 48.828125 44.09375 54.296875 
Q 44.09375 59.90625 40.109375 62.90625 
Q 36.140625 65.921875 28.71875 65.921875 
Q 24.65625 65.921875 20.015625 65.03125 
Q 15.375 64.15625 9.8125 62.3125 
L 9.8125 71.09375 
Q 15.4375 72.65625 20.34375 73.4375 
Q 25.25 74.21875 29.59375 74.21875 
Q 40.828125 74.21875 47.359375 69.109375 
Q 53.90625 64.015625 53.90625 55.328125 
Q 53.90625 49.265625 50.4375 45.09375 
Q 46.96875 40.921875 40.578125 39.3125 
z
" id="DejaVuSans-51"/>
     <path d="M 31.78125 34.625 
Q 24.75 34.625 20.71875 30.859375 
Q 16.703125 27.09375 16.703125 20.515625 
Q 16.703125 13.921875 20.71875 10.15625 
Q 24.75 6.390625 31.78125 6.390625 
Q 38.8125 6.390625 42.859375 10.171875 
Q 46.921875 13.96875 46.921875 20.515625 
Q 46.921875 27.09375 42.890625 30.859375 
Q 38.875 34.625 31.78125 34.625 
z
M 21.921875 38.8125 
Q 15.578125 40.375 12.03125 44.71875 
Q 8.5 49.078125 8.5 55.328125 
Q 8.5 64.0625 14.71875 69.140625 
Q 20.953125 74.21875 31.78125 74.21875 
Q 42.671875 74.21875 48.875 69.140625 
Q 55.078125 64.0625 55.078125 55.328125 
Q 55.078125 49.078125 51.53125 44.71875 
Q 48 40.375 41.703125 38.8125 
Q 48.828125 37.15625 52.796875 32.3125 
Q 56.78125 27.484375 56.78125 20.515625 
Q 56.78125 9.90625 50.3125 4.234375 
Q 43.84375 -1.421875 31.78125 -1.421875 
Q 19.734375 -1.421875 13.25 4.234375 
Q 6.78125 9.90625 6.78125 20.515625 
Q 6.78125 27.484375 10.78125 32.3125 
Q 14.796875 37.15625 21.921875 38.8125 
z
M 18.3125 54.390625 
Q 18.3125 48.734375 21.84375 45.5625 
Q 25.390625 42.390625 31.78125 42.390625 
Q 38.140625 42.390625 41.71875 45.5625 
Q 45.3125 48.734375 45.3125 54.390625 
Q 45.3125 60.0625 41.71875 63.234375 
Q 38.140625 66.40625 31.78125 66.40625 
Q 25.390625 66.40625 21.84375 63.234375 
Q 18.3125 60.0625 18.3125 54.390625 
z
" id="DejaVuSans-56"/>
    </defs>
    <g transform="translate(87.462992 272.843533)scale(0.12 -0.12)">
     <use xlink:href="#DejaVuSans-50"/>
     <use x="63.623047" xlink:href="#DejaVuSans-51"/>
     <use x="127.246094" xlink:href="#DejaVuSans-56"/>
     <use x="190.869141" xlink:href="#DejaVuSans-56"/>
    </g>
   </g>
   <g id="text_7">
    <g id="patch_8">
     <path d="M 36.011024 263.064259 
L 56.736024 263.064259 
L 56.736024 245.386134 
L 36.011024 245.386134 
z
" style="fill:none;opacity:0;"/>
    </g>
    <!-- 18 -->
    <g transform="translate(40.011024 256.984572)scale(0.1 -0.1)">
     <use xlink:href="#DejaVuSans-49"/>
     <use x="63.623047" xlink:href="#DejaVuSans-56"/>
    </g>
   </g>
   <g id="text_8">
    <g id="patch_9">
     <path d="M 72.806575 263.992072 
L 88.361575 263.992072 
L 88.361575 244.458322 
L 72.806575 244.458322 
z
" style="fill:none;opacity:0;"/>
    </g>
    <!-- 2 -->
    <g transform="translate(76.766575 257.536447)scale(0.12 -0.12)">
     <use xlink:href="#DejaVuSans-50"/>
    </g>
   </g>
   <g id="text_9">
    <g id="patch_10">
     <path d="M 86.022992 261.472072 
L 180.522992 261.472072 
L 180.522992 246.978322 
L 86.022992 246.978322 
z
" style="fill:#1f77b4;opacity:0.1;stroke:#000000;stroke-linejoin:miter;"/>
    </g>
    <!-- 357777778899 -->
    <defs>
     <path d="M 10.796875 72.90625 
L 49.515625 72.90625 
L 49.515625 64.59375 
L 19.828125 64.59375 
L 19.828125 46.734375 
Q 21.96875 47.46875 24.109375 47.828125 
Q 26.265625 48.1875 28.421875 48.1875 
Q 40.625 48.1875 47.75 41.5 
Q 54.890625 34.8125 54.890625 23.390625 
Q 54.890625 11.625 47.5625 5.09375 
Q 40.234375 -1.421875 26.90625 -1.421875 
Q 22.3125 -1.421875 17.546875 -0.640625 
Q 12.796875 0.140625 7.71875 1.703125 
L 7.71875 11.625 
Q 12.109375 9.234375 16.796875 8.0625 
Q 21.484375 6.890625 26.703125 6.890625 
Q 35.15625 6.890625 40.078125 11.328125 
Q 45.015625 15.765625 45.015625 23.390625 
Q 45.015625 31 40.078125 35.4375 
Q 35.15625 39.890625 26.703125 39.890625 
Q 22.75 39.890625 18.8125 39.015625 
Q 14.890625 38.140625 10.796875 36.28125 
z
" id="DejaVuSans-53"/>
     <path d="M 10.984375 1.515625 
L 10.984375 10.5 
Q 14.703125 8.734375 18.5 7.8125 
Q 22.3125 6.890625 25.984375 6.890625 
Q 35.75 6.890625 40.890625 13.453125 
Q 46.046875 20.015625 46.78125 33.40625 
Q 43.953125 29.203125 39.59375 26.953125 
Q 35.25 24.703125 29.984375 24.703125 
Q 19.046875 24.703125 12.671875 31.3125 
Q 6.296875 37.9375 6.296875 49.421875 
Q 6.296875 60.640625 12.9375 67.421875 
Q 19.578125 74.21875 30.609375 74.21875 
Q 43.265625 74.21875 49.921875 64.515625 
Q 56.59375 54.828125 56.59375 36.375 
Q 56.59375 19.140625 48.40625 8.859375 
Q 40.234375 -1.421875 26.421875 -1.421875 
Q 22.703125 -1.421875 18.890625 -0.6875 
Q 15.09375 0.046875 10.984375 1.515625 
z
M 30.609375 32.421875 
Q 37.25 32.421875 41.125 36.953125 
Q 45.015625 41.5 45.015625 49.421875 
Q 45.015625 57.28125 41.125 61.84375 
Q 37.25 66.40625 30.609375 66.40625 
Q 23.96875 66.40625 20.09375 61.84375 
Q 16.21875 57.28125 16.21875 49.421875 
Q 16.21875 41.5 20.09375 36.953125 
Q 23.96875 32.421875 30.609375 32.421875 
z
" id="DejaVuSans-57"/>
    </defs>
    <g transform="translate(87.462992 257.536447)scale(0.12 -0.12)">
     <use xlink:href="#DejaVuSans-51"/>
     <use x="63.623047" xlink:href="#DejaVuSans-53"/>
     <use x="127.246094" xlink:href="#DejaVuSans-55"/>
     <use x="190.869141" xlink:href="#DejaVuSans-55"/>
     <use x="254.492188" xlink:href="#DejaVuSans-55"/>
     <use x="318.115234" xlink:href="#DejaVuSans-55"/>
     <use x="381.738281" xlink:href="#DejaVuSans-55"/>
     <use x="445.361328" xlink:href="#DejaVuSans-55"/>
     <use x="508.984375" xlink:href="#DejaVuSans-56"/>
     <use x="572.607422" xlink:href="#DejaVuSans-56"/>
     <use x="636.230469" xlink:href="#DejaVuSans-57"/>
     <use x="699.853516" xlink:href="#DejaVuSans-57"/>
    </g>
   </g>
   <g id="text_10">
    <g id="patch_11">
     <path d="M 36.011024 247.757173 
L 56.736024 247.757173 
L 56.736024 230.079048 
L 36.011024 230.079048 
z
" style="fill:none;opacity:0;"/>
    </g>
    <!-- 33 -->
    <g transform="translate(40.011024 241.677485)scale(0.1 -0.1)">
     <use xlink:href="#DejaVuSans-51"/>
     <use x="63.623047" xlink:href="#DejaVuSans-51"/>
    </g>
   </g>
   <g id="text_11">
    <g id="patch_12">
     <path d="M 72.806575 248.684985 
L 88.361575 248.684985 
L 88.361575 229.151235 
L 72.806575 229.151235 
z
" style="fill:none;opacity:0;"/>
    </g>
    <!-- 3 -->
    <g transform="translate(76.766575 242.22936)scale(0.12 -0.12)">
     <use xlink:href="#DejaVuSans-51"/>
    </g>
   </g>
   <g id="text_12">
    <g id="patch_13">
     <path d="M 86.022992 246.164985 
L 203.427992 246.164985 
L 203.427992 231.671235 
L 86.022992 231.671235 
z
" style="fill:#1f77b4;opacity:0.1;stroke:#000000;stroke-linejoin:miter;"/>
    </g>
    <!-- 011112345677789 -->
    <defs>
     <path d="M 37.796875 64.3125 
L 12.890625 25.390625 
L 37.796875 25.390625 
z
M 35.203125 72.90625 
L 47.609375 72.90625 
L 47.609375 25.390625 
L 58.015625 25.390625 
L 58.015625 17.1875 
L 47.609375 17.1875 
L 47.609375 0 
L 37.796875 0 
L 37.796875 17.1875 
L 4.890625 17.1875 
L 4.890625 26.703125 
z
" id="DejaVuSans-52"/>
    </defs>
    <g transform="translate(87.462992 242.22936)scale(0.12 -0.12)">
     <use xlink:href="#DejaVuSans-48"/>
     <use x="63.623047" xlink:href="#DejaVuSans-49"/>
     <use x="127.246094" xlink:href="#DejaVuSans-49"/>
     <use x="190.869141" xlink:href="#DejaVuSans-49"/>
     <use x="254.492188" xlink:href="#DejaVuSans-49"/>
     <use x="318.115234" xlink:href="#DejaVuSans-50"/>
     <use x="381.738281" xlink:href="#DejaVuSans-51"/>
     <use x="445.361328" xlink:href="#DejaVuSans-52"/>
     <use x="508.984375" xlink:href="#DejaVuSans-53"/>
     <use x="572.607422" xlink:href="#DejaVuSans-54"/>
     <use x="636.230469" xlink:href="#DejaVuSans-55"/>
     <use x="699.853516" xlink:href="#DejaVuSans-55"/>
     <use x="763.476562" xlink:href="#DejaVuSans-55"/>
     <use x="827.099609" xlink:href="#DejaVuSans-56"/>
     <use x="890.722656" xlink:href="#DejaVuSans-57"/>
    </g>
   </g>
   <g id="text_13">
    <g id="patch_14">
     <path d="M 36.011024 232.450086 
L 56.736024 232.450086 
L 56.736024 214.771961 
L 36.011024 214.771961 
z
" style="fill:none;opacity:0;"/>
    </g>
    <!-- 51 -->
    <g transform="translate(40.011024 226.370399)scale(0.1 -0.1)">
     <use xlink:href="#DejaVuSans-53"/>
     <use x="63.623047" xlink:href="#DejaVuSans-49"/>
    </g>
   </g>
   <g id="text_14">
    <g id="patch_15">
     <path d="M 72.806575 233.377899 
L 88.361575 233.377899 
L 88.361575 213.844149 
L 72.806575 213.844149 
z
" style="fill:none;opacity:0;"/>
    </g>
    <!-- 4 -->
    <g transform="translate(76.766575 226.922274)scale(0.12 -0.12)">
     <use xlink:href="#DejaVuSans-52"/>
    </g>
   </g>
   <g id="text_15">
    <g id="patch_16">
     <path d="M 86.022992 230.857899 
L 226.332992 230.857899 
L 226.332992 216.364149 
L 86.022992 216.364149 
z
" style="fill:#1f77b4;opacity:0.1;stroke:#000000;stroke-linejoin:miter;"/>
    </g>
    <!-- 001222233344456788 -->
    <g transform="translate(87.462992 226.922274)scale(0.12 -0.12)">
     <use xlink:href="#DejaVuSans-48"/>
     <use x="63.623047" xlink:href="#DejaVuSans-48"/>
     <use x="127.246094" xlink:href="#DejaVuSans-49"/>
     <use x="190.869141" xlink:href="#DejaVuSans-50"/>
     <use x="254.492188" xlink:href="#DejaVuSans-50"/>
     <use x="318.115234" xlink:href="#DejaVuSans-50"/>
     <use x="381.738281" xlink:href="#DejaVuSans-50"/>
     <use x="445.361328" xlink:href="#DejaVuSans-51"/>
     <use x="508.984375" xlink:href="#DejaVuSans-51"/>
     <use x="572.607422" xlink:href="#DejaVuSans-51"/>
     <use x="636.230469" xlink:href="#DejaVuSans-52"/>
     <use x="699.853516" xlink:href="#DejaVuSans-52"/>
     <use x="763.476562" xlink:href="#DejaVuSans-52"/>
     <use x="827.099609" xlink:href="#DejaVuSans-53"/>
     <use x="890.722656" xlink:href="#DejaVuSans-54"/>
     <use x="954.345703" xlink:href="#DejaVuSans-55"/>
     <use x="1017.96875" xlink:href="#DejaVuSans-56"/>
     <use x="1081.591797" xlink:href="#DejaVuSans-56"/>
    </g>
   </g>
   <g id="text_16">
    <g id="patch_17">
     <path d="M 36.011024 217.143 
L 56.736024 217.143 
L 56.736024 199.464875 
L 36.011024 199.464875 
z
" style="fill:none;opacity:0;"/>
    </g>
    <!-- 56 -->
    <g transform="translate(40.011024 211.063312)scale(0.1 -0.1)">
     <use xlink:href="#DejaVuSans-53"/>
     <use x="63.623047" xlink:href="#DejaVuSans-54"/>
    </g>
   </g>
   <g id="text_17">
    <g id="patch_18">
     <path d="M 72.806575 218.070812 
L 88.361575 218.070812 
L 88.361575 198.537062 
L 72.806575 198.537062 
z
" style="fill:none;opacity:0;"/>
    </g>
    <!-- 5 -->
    <g transform="translate(76.766575 211.615187)scale(0.12 -0.12)">
     <use xlink:href="#DejaVuSans-53"/>
    </g>
   </g>
   <g id="text_18">
    <g id="patch_19">
     <path d="M 86.022992 215.550812 
L 127.077992 215.550812 
L 127.077992 201.057062 
L 86.022992 201.057062 
z
" style="fill:#1f77b4;opacity:0.1;stroke:#000000;stroke-linejoin:miter;"/>
    </g>
    <!-- 23788 -->
    <g transform="translate(87.462992 211.615187)scale(0.12 -0.12)">
     <use xlink:href="#DejaVuSans-50"/>
     <use x="63.623047" xlink:href="#DejaVuSans-51"/>
     <use x="127.246094" xlink:href="#DejaVuSans-55"/>
     <use x="190.869141" xlink:href="#DejaVuSans-56"/>
     <use x="254.492188" xlink:href="#DejaVuSans-56"/>
    </g>
   </g>
   <g id="text_19">
    <g id="patch_20">
     <path d="M 36.011024 201.835913 
L 56.736024 201.835913 
L 56.736024 184.157788 
L 36.011024 184.157788 
z
" style="fill:none;opacity:0;"/>
    </g>
    <!-- 59 -->
    <g transform="translate(40.011024 195.756225)scale(0.1 -0.1)">
     <use xlink:href="#DejaVuSans-53"/>
     <use x="63.623047" xlink:href="#DejaVuSans-57"/>
    </g>
   </g>
   <g id="text_20">
    <g id="patch_21">
     <path d="M 72.806575 202.763725 
L 88.361575 202.763725 
L 88.361575 183.229975 
L 72.806575 183.229975 
z
" style="fill:none;opacity:0;"/>
    </g>
    <!-- 6 -->
    <g transform="translate(76.766575 196.3081)scale(0.12 -0.12)">
     <use xlink:href="#DejaVuSans-54"/>
    </g>
   </g>
   <g id="text_21">
    <g id="patch_22">
     <path d="M 86.022992 200.243725 
L 111.807992 200.243725 
L 111.807992 185.749975 
L 86.022992 185.749975 
z
" style="fill:#1f77b4;opacity:0.1;stroke:#000000;stroke-linejoin:miter;"/>
    </g>
    <!-- 138 -->
    <g transform="translate(87.462992 196.3081)scale(0.12 -0.12)">
     <use xlink:href="#DejaVuSans-49"/>
     <use x="63.623047" xlink:href="#DejaVuSans-51"/>
     <use x="127.246094" xlink:href="#DejaVuSans-56"/>
    </g>
   </g>
   <g id="text_22">
    <g id="patch_23">
     <path d="M 36.011024 186.528826 
L 56.736024 186.528826 
L 56.736024 168.850701 
L 36.011024 168.850701 
z
" style="fill:none;opacity:0;"/>
    </g>
    <!-- 60 -->
    <g transform="translate(40.011024 180.449139)scale(0.1 -0.1)">
     <use xlink:href="#DejaVuSans-54"/>
     <use x="63.623047" xlink:href="#DejaVuSans-48"/>
    </g>
   </g>
   <g id="text_23">
    <g id="patch_24">
     <path d="M 72.806575 187.456639 
L 88.361575 187.456639 
L 88.361575 167.922889 
L 72.806575 167.922889 
z
" style="fill:none;opacity:0;"/>
    </g>
    <!-- 7 -->
    <g transform="translate(76.766575 181.001014)scale(0.12 -0.12)">
     <use xlink:href="#DejaVuSans-55"/>
    </g>
   </g>
   <g id="text_24">
    <g id="patch_25">
     <path d="M 86.022992 184.936639 
L 96.537992 184.936639 
L 96.537992 170.442889 
L 86.022992 170.442889 
z
" style="fill:#1f77b4;opacity:0.1;stroke:#000000;stroke-linejoin:miter;"/>
    </g>
    <!-- 1 -->
    <g transform="translate(87.462992 181.001014)scale(0.12 -0.12)">
     <use xlink:href="#DejaVuSans-49"/>
    </g>
   </g>
   <g id="text_25">
    <g id="patch_26">
     <path d="M 36.011024 171.22174 
L 56.736024 171.22174 
L 56.736024 153.543615 
L 36.011024 153.543615 
z
" style="fill:none;opacity:0;"/>
    </g>
    <!-- 60 -->
    <g transform="translate(40.011024 165.142052)scale(0.1 -0.1)">
     <use xlink:href="#DejaVuSans-54"/>
     <use x="63.623047" xlink:href="#DejaVuSans-48"/>
    </g>
   </g>
   <g id="text_26">
    <g id="patch_27">
     <path d="M 72.806575 172.149552 
L 88.361575 172.149552 
L 88.361575 152.615802 
L 72.806575 152.615802 
z
" style="fill:none;opacity:0;"/>
    </g>
    <!-- 8 -->
    <g transform="translate(76.766575 165.693927)scale(0.12 -0.12)">
     <use xlink:href="#DejaVuSans-56"/>
    </g>
   </g>
   <g id="text_27">
    <g id="patch_28">
     <path d="M 87.924366 156.169134 
L 96.804366 156.169134 
L 96.804366 141.675384 
L 87.924366 141.675384 
z
" style="fill:#9467bd;opacity:0.25;stroke:#000000;stroke-linejoin:miter;"/>
    </g>
    <!-- _ -->
    <defs>
     <path d="M 50.984375 -16.609375 
L 50.984375 -23.578125 
L -0.984375 -23.578125 
L -0.984375 -16.609375 
z
" id="DejaVuSans-95"/>
    </defs>
    <g transform="translate(89.364366 151.899759)scale(0.12 -0.12)">
     <use xlink:href="#DejaVuSans-95"/>
    </g>
   </g>
   <g id="text_28">
    <g id="patch_29">
     <path d="M 36.011024 155.914653 
L 56.736024 155.914653 
L 56.736024 138.236528 
L 36.011024 138.236528 
z
" style="fill:none;opacity:0;"/>
    </g>
    <!-- 62 -->
    <g transform="translate(40.011024 149.834966)scale(0.1 -0.1)">
     <use xlink:href="#DejaVuSans-54"/>
     <use x="63.623047" xlink:href="#DejaVuSans-50"/>
    </g>
   </g>
   <g id="text_29">
    <g id="patch_30">
     <path d="M 72.806575 156.842466 
L 88.361575 156.842466 
L 88.361575 137.308716 
L 72.806575 137.308716 
z
" style="fill:none;opacity:0;"/>
    </g>
    <!-- 9 -->
    <g transform="translate(76.766575 150.386841)scale(0.12 -0.12)">
     <use xlink:href="#DejaVuSans-57"/>
    </g>
   </g>
   <g id="text_30">
    <g id="patch_31">
     <path d="M 86.022992 154.322466 
L 104.172992 154.322466 
L 104.172992 139.828716 
L 86.022992 139.828716 
z
" style="fill:#1f77b4;opacity:0.1;stroke:#000000;stroke-linejoin:miter;"/>
    </g>
    <!-- 69 -->
    <g transform="translate(87.462992 150.386841)scale(0.12 -0.12)">
     <use xlink:href="#DejaVuSans-54"/>
     <use x="63.623047" xlink:href="#DejaVuSans-57"/>
    </g>
   </g>
   <g id="text_31">
    <g id="patch_32">
     <path d="M 36.011024 140.607566 
L 56.736024 140.607566 
L 56.736024 122.929441 
L 36.011024 122.929441 
z
" style="fill:none;opacity:0;"/>
    </g>
    <!-- 72 -->
    <g transform="translate(40.011024 134.527879)scale(0.1 -0.1)">
     <use xlink:href="#DejaVuSans-55"/>
     <use x="63.623047" xlink:href="#DejaVuSans-50"/>
    </g>
   </g>
   <g id="text_32">
    <g id="patch_33">
     <path d="M 65.171575 141.535379 
L 88.361575 141.535379 
L 88.361575 122.001629 
L 65.171575 122.001629 
z
" style="fill:none;opacity:0;"/>
    </g>
    <!-- 10 -->
    <g transform="translate(69.131575 135.079754)scale(0.12 -0.12)">
     <use xlink:href="#DejaVuSans-49"/>
     <use x="63.623047" xlink:href="#DejaVuSans-48"/>
    </g>
   </g>
   <g id="text_33">
    <g id="patch_34">
     <path d="M 86.022992 139.015379 
L 165.252992 139.015379 
L 165.252992 124.521629 
L 86.022992 124.521629 
z
" style="fill:#1f77b4;opacity:0.1;stroke:#000000;stroke-linejoin:miter;"/>
    </g>
    <!-- 4555567999 -->
    <g transform="translate(87.462992 135.079754)scale(0.12 -0.12)">
     <use xlink:href="#DejaVuSans-52"/>
     <use x="63.623047" xlink:href="#DejaVuSans-53"/>
     <use x="127.246094" xlink:href="#DejaVuSans-53"/>
     <use x="190.869141" xlink:href="#DejaVuSans-53"/>
     <use x="254.492188" xlink:href="#DejaVuSans-53"/>
     <use x="318.115234" xlink:href="#DejaVuSans-54"/>
     <use x="381.738281" xlink:href="#DejaVuSans-55"/>
     <use x="445.361328" xlink:href="#DejaVuSans-57"/>
     <use x="508.984375" xlink:href="#DejaVuSans-57"/>
     <use x="572.607422" xlink:href="#DejaVuSans-57"/>
    </g>
   </g>
   <g id="text_34">
    <g id="patch_35">
     <path d="M 36.011024 125.30048 
L 56.736024 125.30048 
L 56.736024 107.622355 
L 36.011024 107.622355 
z
" style="fill:none;opacity:0;"/>
    </g>
    <!-- 95 -->
    <g transform="translate(40.011024 119.220792)scale(0.1 -0.1)">
     <use xlink:href="#DejaVuSans-57"/>
     <use x="63.623047" xlink:href="#DejaVuSans-53"/>
    </g>
   </g>
   <g id="text_35">
    <g id="patch_36">
     <path d="M 65.171575 126.228292 
L 88.361575 126.228292 
L 88.361575 106.694542 
L 65.171575 106.694542 
z
" style="fill:none;opacity:0;"/>
    </g>
    <!-- 11 -->
    <g transform="translate(69.131575 119.772667)scale(0.12 -0.12)">
     <use xlink:href="#DejaVuSans-49"/>
     <use x="63.623047" xlink:href="#DejaVuSans-49"/>
    </g>
   </g>
   <g id="text_36">
    <g id="patch_37">
     <path d="M 86.022992 123.708292 
L 264.507992 123.708292 
L 264.507992 109.214542 
L 86.022992 109.214542 
z
" style="fill:#1f77b4;opacity:0.1;stroke:#000000;stroke-linejoin:miter;"/>
    </g>
    <!-- 13333444555666677778899 -->
    <g transform="translate(87.462992 119.772667)scale(0.12 -0.12)">
     <use xlink:href="#DejaVuSans-49"/>
     <use x="63.623047" xlink:href="#DejaVuSans-51"/>
     <use x="127.246094" xlink:href="#DejaVuSans-51"/>
     <use x="190.869141" xlink:href="#DejaVuSans-51"/>
     <use x="254.492188" xlink:href="#DejaVuSans-51"/>
     <use x="318.115234" xlink:href="#DejaVuSans-52"/>
     <use x="381.738281" xlink:href="#DejaVuSans-52"/>
     <use x="445.361328" xlink:href="#DejaVuSans-52"/>
     <use x="508.984375" xlink:href="#DejaVuSans-53"/>
     <use x="572.607422" xlink:href="#DejaVuSans-53"/>
     <use x="636.230469" xlink:href="#DejaVuSans-53"/>
     <use x="699.853516" xlink:href="#DejaVuSans-54"/>
     <use x="763.476562" xlink:href="#DejaVuSans-54"/>
     <use x="827.099609" xlink:href="#DejaVuSans-54"/>
     <use x="890.722656" xlink:href="#DejaVuSans-54"/>
     <use x="954.345703" xlink:href="#DejaVuSans-55"/>
     <use x="1017.96875" xlink:href="#DejaVuSans-55"/>
     <use x="1081.591797" xlink:href="#DejaVuSans-55"/>
     <use x="1145.214844" xlink:href="#DejaVuSans-55"/>
     <use x="1208.837891" xlink:href="#DejaVuSans-56"/>
     <use x="1272.460938" xlink:href="#DejaVuSans-56"/>
     <use x="1336.083984" xlink:href="#DejaVuSans-57"/>
     <use x="1399.707031" xlink:href="#DejaVuSans-57"/>
    </g>
   </g>
   <g id="text_37">
    <g id="patch_38">
     <path d="M 36.011024 109.993393 
L 63.098524 109.993393 
L 63.098524 92.315268 
L 36.011024 92.315268 
z
" style="fill:none;opacity:0;"/>
    </g>
    <!-- 115 -->
    <g transform="translate(40.011024 103.913706)scale(0.1 -0.1)">
     <use xlink:href="#DejaVuSans-49"/>
     <use x="63.623047" xlink:href="#DejaVuSans-49"/>
     <use x="127.246094" xlink:href="#DejaVuSans-53"/>
    </g>
   </g>
   <g id="text_38">
    <g id="patch_39">
     <path d="M 65.171575 110.921206 
L 88.361575 110.921206 
L 88.361575 91.387456 
L 65.171575 91.387456 
z
" style="fill:none;opacity:0;"/>
    </g>
    <!-- 12 -->
    <g transform="translate(69.131575 104.465581)scale(0.12 -0.12)">
     <use xlink:href="#DejaVuSans-49"/>
     <use x="63.623047" xlink:href="#DejaVuSans-50"/>
    </g>
   </g>
   <g id="text_39">
    <g id="patch_40">
     <path d="M 86.022992 108.401206 
L 241.602992 108.401206 
L 241.602992 93.907456 
L 86.022992 93.907456 
z
" style="fill:#1f77b4;opacity:0.1;stroke:#000000;stroke-linejoin:miter;"/>
    </g>
    <!-- 00112234445556777788 -->
    <g transform="translate(87.462992 104.465581)scale(0.12 -0.12)">
     <use xlink:href="#DejaVuSans-48"/>
     <use x="63.623047" xlink:href="#DejaVuSans-48"/>
     <use x="127.246094" xlink:href="#DejaVuSans-49"/>
     <use x="190.869141" xlink:href="#DejaVuSans-49"/>
     <use x="254.492188" xlink:href="#DejaVuSans-50"/>
     <use x="318.115234" xlink:href="#DejaVuSans-50"/>
     <use x="381.738281" xlink:href="#DejaVuSans-51"/>
     <use x="445.361328" xlink:href="#DejaVuSans-52"/>
     <use x="508.984375" xlink:href="#DejaVuSans-52"/>
     <use x="572.607422" xlink:href="#DejaVuSans-52"/>
     <use x="636.230469" xlink:href="#DejaVuSans-53"/>
     <use x="699.853516" xlink:href="#DejaVuSans-53"/>
     <use x="763.476562" xlink:href="#DejaVuSans-53"/>
     <use x="827.099609" xlink:href="#DejaVuSans-54"/>
     <use x="890.722656" xlink:href="#DejaVuSans-55"/>
     <use x="954.345703" xlink:href="#DejaVuSans-55"/>
     <use x="1017.96875" xlink:href="#DejaVuSans-55"/>
     <use x="1081.591797" xlink:href="#DejaVuSans-55"/>
     <use x="1145.214844" xlink:href="#DejaVuSans-56"/>
     <use x="1208.837891" xlink:href="#DejaVuSans-56"/>
    </g>
   </g>
   <g id="text_40">
    <g id="patch_41">
     <path d="M 36.011024 94.686307 
L 63.098524 94.686307 
L 63.098524 77.008182 
L 36.011024 77.008182 
z
" style="fill:none;opacity:0;"/>
    </g>
    <!-- 119 -->
    <g transform="translate(40.011024 88.606619)scale(0.1 -0.1)">
     <use xlink:href="#DejaVuSans-49"/>
     <use x="63.623047" xlink:href="#DejaVuSans-49"/>
     <use x="127.246094" xlink:href="#DejaVuSans-57"/>
    </g>
   </g>
   <g id="text_41">
    <g id="patch_42">
     <path d="M 65.171575 95.614119 
L 88.361575 95.614119 
L 88.361575 76.080369 
L 65.171575 76.080369 
z
" style="fill:none;opacity:0;"/>
    </g>
    <!-- 13 -->
    <g transform="translate(69.131575 89.158494)scale(0.12 -0.12)">
     <use xlink:href="#DejaVuSans-49"/>
     <use x="63.623047" xlink:href="#DejaVuSans-51"/>
    </g>
   </g>
   <g id="text_42">
    <g id="patch_43">
     <path d="M 86.022992 93.094119 
L 119.442992 93.094119 
L 119.442992 78.600369 
L 86.022992 78.600369 
z
" style="fill:#1f77b4;opacity:0.1;stroke:#000000;stroke-linejoin:miter;"/>
    </g>
    <!-- 1239 -->
    <g transform="translate(87.462992 89.158494)scale(0.12 -0.12)">
     <use xlink:href="#DejaVuSans-49"/>
     <use x="63.623047" xlink:href="#DejaVuSans-50"/>
     <use x="127.246094" xlink:href="#DejaVuSans-51"/>
     <use x="190.869141" xlink:href="#DejaVuSans-57"/>
    </g>
   </g>
   <g id="text_43">
    <g id="patch_44">
     <path d="M 36.011024 79.37922 
L 63.098524 79.37922 
L 63.098524 61.701095 
L 36.011024 61.701095 
z
" style="fill:none;opacity:0;"/>
    </g>
    <!-- 121 -->
    <g transform="translate(40.011024 73.299532)scale(0.1 -0.1)">
     <use xlink:href="#DejaVuSans-49"/>
     <use x="63.623047" xlink:href="#DejaVuSans-50"/>
     <use x="127.246094" xlink:href="#DejaVuSans-49"/>
    </g>
   </g>
   <g id="text_44">
    <g id="patch_45">
     <path d="M 65.171575 80.307032 
L 88.361575 80.307032 
L 88.361575 60.773282 
L 65.171575 60.773282 
z
" style="fill:none;opacity:0;"/>
    </g>
    <!-- 14 -->
    <g transform="translate(69.131575 73.851407)scale(0.12 -0.12)">
     <use xlink:href="#DejaVuSans-49"/>
     <use x="63.623047" xlink:href="#DejaVuSans-52"/>
    </g>
   </g>
   <g id="text_45">
    <g id="patch_46">
     <path d="M 86.022992 77.787032 
L 104.172992 77.787032 
L 104.172992 63.293282 
L 86.022992 63.293282 
z
" style="fill:#1f77b4;opacity:0.1;stroke:#000000;stroke-linejoin:miter;"/>
    </g>
    <!-- 16 -->
    <g transform="translate(87.462992 73.851407)scale(0.12 -0.12)">
     <use xlink:href="#DejaVuSans-49"/>
     <use x="63.623047" xlink:href="#DejaVuSans-54"/>
    </g>
   </g>
   <g id="text_46">
    <g id="patch_47">
     <path d="M 62.860822 315.646875 
L 78.389572 315.646875 
L 78.389572 299.953125 
L 62.860822 299.953125 
z
" style="fill:#d62728;opacity:0.1;stroke:#000000;stroke-linejoin:miter;"/>
    </g>
    <!-- 7  -->
    <defs>
     <path id="DejaVuSans-32"/>
    </defs>
    <g transform="translate(64.900822 311.11125)scale(0.12 -0.12)">
     <use xlink:href="#DejaVuSans-55"/>
     <use x="63.623047" xlink:href="#DejaVuSans-32"/>
    </g>
   </g>
   <g id="text_47">
    <g id="patch_48">
     <path d="M 55.225822 55.426403 
L 86.024572 55.426403 
L 86.024572 39.732653 
L 55.225822 39.732653 
z
" style="fill:#d62728;opacity:0.1;stroke:#000000;stroke-linejoin:miter;"/>
    </g>
    <!-- 146  -->
    <g transform="translate(57.265822 50.890778)scale(0.12 -0.12)">
     <use xlink:href="#DejaVuSans-49"/>
     <use x="63.623047" xlink:href="#DejaVuSans-52"/>
     <use x="127.246094" xlink:href="#DejaVuSans-54"/>
     <use x="190.869141" xlink:href="#DejaVuSans-32"/>
    </g>
   </g>
   <g id="text_48">
    <!-- Key: aggr|stem|leaf -->
    <defs>
     <path d="M 9.8125 72.90625 
L 19.671875 72.90625 
L 19.671875 42.09375 
L 52.390625 72.90625 
L 65.09375 72.90625 
L 28.90625 38.921875 
L 67.671875 0 
L 54.6875 0 
L 19.671875 35.109375 
L 19.671875 0 
L 9.8125 0 
z
" id="DejaVuSans-75"/>
     <path d="M 56.203125 29.59375 
L 56.203125 25.203125 
L 14.890625 25.203125 
Q 15.484375 15.921875 20.484375 11.0625 
Q 25.484375 6.203125 34.421875 6.203125 
Q 39.59375 6.203125 44.453125 7.46875 
Q 49.3125 8.734375 54.109375 11.28125 
L 54.109375 2.78125 
Q 49.265625 0.734375 44.1875 -0.34375 
Q 39.109375 -1.421875 33.890625 -1.421875 
Q 20.796875 -1.421875 13.15625 6.1875 
Q 5.515625 13.8125 5.515625 26.8125 
Q 5.515625 40.234375 12.765625 48.109375 
Q 20.015625 56 32.328125 56 
Q 43.359375 56 49.78125 48.890625 
Q 56.203125 41.796875 56.203125 29.59375 
z
M 47.21875 32.234375 
Q 47.125 39.59375 43.09375 43.984375 
Q 39.0625 48.390625 32.421875 48.390625 
Q 24.90625 48.390625 20.390625 44.140625 
Q 15.875 39.890625 15.1875 32.171875 
z
" id="DejaVuSans-101"/>
     <path d="M 32.171875 -5.078125 
Q 28.375 -14.84375 24.75 -17.8125 
Q 21.140625 -20.796875 15.09375 -20.796875 
L 7.90625 -20.796875 
L 7.90625 -13.28125 
L 13.1875 -13.28125 
Q 16.890625 -13.28125 18.9375 -11.515625 
Q 21 -9.765625 23.484375 -3.21875 
L 25.09375 0.875 
L 2.984375 54.6875 
L 12.5 54.6875 
L 29.59375 11.921875 
L 46.6875 54.6875 
L 56.203125 54.6875 
z
" id="DejaVuSans-121"/>
     <path d="M 11.71875 12.40625 
L 22.015625 12.40625 
L 22.015625 0 
L 11.71875 0 
z
M 11.71875 51.703125 
L 22.015625 51.703125 
L 22.015625 39.3125 
L 11.71875 39.3125 
z
" id="DejaVuSans-58"/>
     <path d="M 34.28125 27.484375 
Q 23.390625 27.484375 19.1875 25 
Q 14.984375 22.515625 14.984375 16.5 
Q 14.984375 11.71875 18.140625 8.90625 
Q 21.296875 6.109375 26.703125 6.109375 
Q 34.1875 6.109375 38.703125 11.40625 
Q 43.21875 16.703125 43.21875 25.484375 
L 43.21875 27.484375 
z
M 52.203125 31.203125 
L 52.203125 0 
L 43.21875 0 
L 43.21875 8.296875 
Q 40.140625 3.328125 35.546875 0.953125 
Q 30.953125 -1.421875 24.3125 -1.421875 
Q 15.921875 -1.421875 10.953125 3.296875 
Q 6 8.015625 6 15.921875 
Q 6 25.140625 12.171875 29.828125 
Q 18.359375 34.515625 30.609375 34.515625 
L 43.21875 34.515625 
L 43.21875 35.40625 
Q 43.21875 41.609375 39.140625 45 
Q 35.0625 48.390625 27.6875 48.390625 
Q 23 48.390625 18.546875 47.265625 
Q 14.109375 46.140625 10.015625 43.890625 
L 10.015625 52.203125 
Q 14.9375 54.109375 19.578125 55.046875 
Q 24.21875 56 28.609375 56 
Q 40.484375 56 46.34375 49.84375 
Q 52.203125 43.703125 52.203125 31.203125 
z
" id="DejaVuSans-97"/>
     <path d="M 45.40625 27.984375 
Q 45.40625 37.75 41.375 43.109375 
Q 37.359375 48.484375 30.078125 48.484375 
Q 22.859375 48.484375 18.828125 43.109375 
Q 14.796875 37.75 14.796875 27.984375 
Q 14.796875 18.265625 18.828125 12.890625 
Q 22.859375 7.515625 30.078125 7.515625 
Q 37.359375 7.515625 41.375 12.890625 
Q 45.40625 18.265625 45.40625 27.984375 
z
M 54.390625 6.78125 
Q 54.390625 -7.171875 48.1875 -13.984375 
Q 42 -20.796875 29.203125 -20.796875 
Q 24.46875 -20.796875 20.265625 -20.09375 
Q 16.0625 -19.390625 12.109375 -17.921875 
L 12.109375 -9.1875 
Q 16.0625 -11.328125 19.921875 -12.34375 
Q 23.78125 -13.375 27.78125 -13.375 
Q 36.625 -13.375 41.015625 -8.765625 
Q 45.40625 -4.15625 45.40625 5.171875 
L 45.40625 9.625 
Q 42.625 4.78125 38.28125 2.390625 
Q 33.9375 0 27.875 0 
Q 17.828125 0 11.671875 7.65625 
Q 5.515625 15.328125 5.515625 27.984375 
Q 5.515625 40.671875 11.671875 48.328125 
Q 17.828125 56 27.875 56 
Q 33.9375 56 38.28125 53.609375 
Q 42.625 51.21875 45.40625 46.390625 
L 45.40625 54.6875 
L 54.390625 54.6875 
z
" id="DejaVuSans-103"/>
     <path d="M 41.109375 46.296875 
Q 39.59375 47.171875 37.8125 47.578125 
Q 36.03125 48 33.890625 48 
Q 26.265625 48 22.1875 43.046875 
Q 18.109375 38.09375 18.109375 28.8125 
L 18.109375 0 
L 9.078125 0 
L 9.078125 54.6875 
L 18.109375 54.6875 
L 18.109375 46.1875 
Q 20.953125 51.171875 25.484375 53.578125 
Q 30.03125 56 36.53125 56 
Q 37.453125 56 38.578125 55.875 
Q 39.703125 55.765625 41.0625 55.515625 
z
" id="DejaVuSans-114"/>
     <path d="M 21 76.421875 
L 21 -23.578125 
L 12.703125 -23.578125 
L 12.703125 76.421875 
z
" id="DejaVuSans-124"/>
     <path d="M 44.28125 53.078125 
L 44.28125 44.578125 
Q 40.484375 46.53125 36.375 47.5 
Q 32.28125 48.484375 27.875 48.484375 
Q 21.1875 48.484375 17.84375 46.4375 
Q 14.5 44.390625 14.5 40.28125 
Q 14.5 37.15625 16.890625 35.375 
Q 19.28125 33.59375 26.515625 31.984375 
L 29.59375 31.296875 
Q 39.15625 29.25 43.1875 25.515625 
Q 47.21875 21.78125 47.21875 15.09375 
Q 47.21875 7.46875 41.1875 3.015625 
Q 35.15625 -1.421875 24.609375 -1.421875 
Q 20.21875 -1.421875 15.453125 -0.5625 
Q 10.6875 0.296875 5.421875 2 
L 5.421875 11.28125 
Q 10.40625 8.6875 15.234375 7.390625 
Q 20.0625 6.109375 24.8125 6.109375 
Q 31.15625 6.109375 34.5625 8.28125 
Q 37.984375 10.453125 37.984375 14.40625 
Q 37.984375 18.0625 35.515625 20.015625 
Q 33.0625 21.96875 24.703125 23.78125 
L 21.578125 24.515625 
Q 13.234375 26.265625 9.515625 29.90625 
Q 5.8125 33.546875 5.8125 39.890625 
Q 5.8125 47.609375 11.28125 51.796875 
Q 16.75 56 26.8125 56 
Q 31.78125 56 36.171875 55.265625 
Q 40.578125 54.546875 44.28125 53.078125 
z
" id="DejaVuSans-115"/>
     <path d="M 18.3125 70.21875 
L 18.3125 54.6875 
L 36.8125 54.6875 
L 36.8125 47.703125 
L 18.3125 47.703125 
L 18.3125 18.015625 
Q 18.3125 11.328125 20.140625 9.421875 
Q 21.96875 7.515625 27.59375 7.515625 
L 36.8125 7.515625 
L 36.8125 0 
L 27.59375 0 
Q 17.1875 0 13.234375 3.875 
Q 9.28125 7.765625 9.28125 18.015625 
L 9.28125 47.703125 
L 2.6875 47.703125 
L 2.6875 54.6875 
L 9.28125 54.6875 
L 9.28125 70.21875 
z
" id="DejaVuSans-116"/>
     <path d="M 52 44.1875 
Q 55.375 50.25 60.0625 53.125 
Q 64.75 56 71.09375 56 
Q 79.640625 56 84.28125 50.015625 
Q 88.921875 44.046875 88.921875 33.015625 
L 88.921875 0 
L 79.890625 0 
L 79.890625 32.71875 
Q 79.890625 40.578125 77.09375 44.375 
Q 74.3125 48.1875 68.609375 48.1875 
Q 61.625 48.1875 57.5625 43.546875 
Q 53.515625 38.921875 53.515625 30.90625 
L 53.515625 0 
L 44.484375 0 
L 44.484375 32.71875 
Q 44.484375 40.625 41.703125 44.40625 
Q 38.921875 48.1875 33.109375 48.1875 
Q 26.21875 48.1875 22.15625 43.53125 
Q 18.109375 38.875 18.109375 30.90625 
L 18.109375 0 
L 9.078125 0 
L 9.078125 54.6875 
L 18.109375 54.6875 
L 18.109375 46.1875 
Q 21.1875 51.21875 25.484375 53.609375 
Q 29.78125 56 35.6875 56 
Q 41.65625 56 45.828125 52.96875 
Q 50 49.953125 52 44.1875 
z
" id="DejaVuSans-109"/>
     <path d="M 9.421875 75.984375 
L 18.40625 75.984375 
L 18.40625 0 
L 9.421875 0 
z
" id="DejaVuSans-108"/>
     <path d="M 37.109375 75.984375 
L 37.109375 68.5 
L 28.515625 68.5 
Q 23.6875 68.5 21.796875 66.546875 
Q 19.921875 64.59375 19.921875 59.515625 
L 19.921875 54.6875 
L 34.71875 54.6875 
L 34.71875 47.703125 
L 19.921875 47.703125 
L 19.921875 0 
L 10.890625 0 
L 10.890625 47.703125 
L 2.296875 47.703125 
L 2.296875 54.6875 
L 10.890625 54.6875 
L 10.890625 58.5 
Q 10.890625 67.625 15.140625 71.796875 
Q 19.390625 75.984375 28.609375 75.984375 
z
" id="DejaVuSans-102"/>
    </defs>
    <g transform="translate(329.495044 50.221715)scale(0.1 -0.1)">
     <use xlink:href="#DejaVuSans-75"/>
     <use x="65.498047" xlink:href="#DejaVuSans-101"/>
     <use x="127.021484" xlink:href="#DejaVuSans-121"/>
     <use x="186.091797" xlink:href="#DejaVuSans-58"/>
     <use x="219.783203" xlink:href="#DejaVuSans-32"/>
     <use x="251.570312" xlink:href="#DejaVuSans-97"/>
     <use x="312.849609" xlink:href="#DejaVuSans-103"/>
     <use x="376.326172" xlink:href="#DejaVuSans-103"/>
     <use x="439.802734" xlink:href="#DejaVuSans-114"/>
     <use x="480.916016" xlink:href="#DejaVuSans-124"/>
     <use x="514.607422" xlink:href="#DejaVuSans-115"/>
     <use x="566.707031" xlink:href="#DejaVuSans-116"/>
     <use x="605.916016" xlink:href="#DejaVuSans-101"/>
     <use x="667.439453" xlink:href="#DejaVuSans-109"/>
     <use x="764.851562" xlink:href="#DejaVuSans-124"/>
     <use x="798.542969" xlink:href="#DejaVuSans-108"/>
     <use x="826.326172" xlink:href="#DejaVuSans-101"/>
     <use x="887.849609" xlink:href="#DejaVuSans-97"/>
     <use x="949.128906" xlink:href="#DejaVuSans-102"/>
    </g>
   </g>
   <g id="text_49">
    <!-- 121 -->
    <g transform="translate(314.187957 64.542239)scale(0.06 -0.06)">
     <use xlink:href="#DejaVuSans-49"/>
     <use x="63.623047" xlink:href="#DejaVuSans-50"/>
     <use x="127.246094" xlink:href="#DejaVuSans-49"/>
    </g>
   </g>
   <g id="text_50">
    <!-- 14 -->
    <defs>
     <path d="M 11.71875 12.984375 
L 28.328125 12.984375 
L 28.328125 60.109375 
L 11.28125 56.59375 
L 11.28125 69.390625 
L 28.21875 72.90625 
L 46.09375 72.90625 
L 46.09375 12.984375 
L 62.703125 12.984375 
L 62.703125 0 
L 11.71875 0 
z
" id="DejaVuSans-Bold-49"/>
     <path d="M 36.8125 57.421875 
L 16.21875 26.90625 
L 36.8125 26.90625 
z
M 33.6875 72.90625 
L 54.59375 72.90625 
L 54.59375 26.90625 
L 64.984375 26.90625 
L 64.984375 13.28125 
L 54.59375 13.28125 
L 54.59375 0 
L 36.8125 0 
L 36.8125 13.28125 
L 4.5 13.28125 
L 4.5 29.390625 
z
" id="DejaVuSans-Bold-52"/>
    </defs>
    <g transform="translate(329.495044 65.645989)scale(0.1 -0.1)">
     <use xlink:href="#DejaVuSans-Bold-49"/>
     <use x="69.580078" xlink:href="#DejaVuSans-Bold-52"/>
    </g>
   </g>
   <g id="text_51">
    <!-- 14 -->
    <g transform="translate(390.72339 65.645989)scale(0.1 -0.1)">
     <use xlink:href="#DejaVuSans-Bold-49"/>
     <use x="69.580078" xlink:href="#DejaVuSans-Bold-52"/>
    </g>
   </g>
   <g id="text_52">
    <!--   =         x10 = 141.0 -->
    <defs>
     <path d="M 10.59375 45.40625 
L 73.1875 45.40625 
L 73.1875 37.203125 
L 10.59375 37.203125 
z
M 10.59375 25.484375 
L 73.1875 25.484375 
L 73.1875 17.1875 
L 10.59375 17.1875 
z
" id="DejaVuSans-61"/>
     <path d="M 54.890625 54.6875 
L 35.109375 28.078125 
L 55.90625 0 
L 45.3125 0 
L 29.390625 21.484375 
L 13.484375 0 
L 2.875 0 
L 24.125 28.609375 
L 4.6875 54.6875 
L 15.28125 54.6875 
L 29.78125 35.203125 
L 44.28125 54.6875 
z
" id="DejaVuSans-120"/>
     <path d="M 10.6875 12.40625 
L 21 12.40625 
L 21 0 
L 10.6875 0 
z
" id="DejaVuSans-46"/>
    </defs>
    <g transform="translate(371.814636 65.645989)scale(0.1 -0.1)">
     <use xlink:href="#DejaVuSans-32"/>
     <use x="31.787109" xlink:href="#DejaVuSans-32"/>
     <use x="63.574219" xlink:href="#DejaVuSans-61"/>
     <use x="147.363281" xlink:href="#DejaVuSans-32"/>
     <use x="179.150391" xlink:href="#DejaVuSans-32"/>
     <use x="210.9375" xlink:href="#DejaVuSans-32"/>
     <use x="242.724609" xlink:href="#DejaVuSans-32"/>
     <use x="274.511719" xlink:href="#DejaVuSans-32"/>
     <use x="306.298828" xlink:href="#DejaVuSans-32"/>
     <use x="338.085938" xlink:href="#DejaVuSans-32"/>
     <use x="369.873047" xlink:href="#DejaVuSans-32"/>
     <use x="401.660156" xlink:href="#DejaVuSans-32"/>
     <use x="433.447266" xlink:href="#DejaVuSans-120"/>
     <use x="492.626953" xlink:href="#DejaVuSans-49"/>
     <use x="556.25" xlink:href="#DejaVuSans-48"/>
     <use x="619.873047" xlink:href="#DejaVuSans-32"/>
     <use x="651.660156" xlink:href="#DejaVuSans-61"/>
     <use x="735.449219" xlink:href="#DejaVuSans-32"/>
     <use x="767.236328" xlink:href="#DejaVuSans-49"/>
     <use x="830.859375" xlink:href="#DejaVuSans-52"/>
     <use x="894.482422" xlink:href="#DejaVuSans-49"/>
     <use x="958.105469" xlink:href="#DejaVuSans-46"/>
     <use x="989.892578" xlink:href="#DejaVuSans-48"/>
    </g>
   </g>
   <g id="text_53">
    <g id="patch_49">
     <path d="M 347.394257 69.725677 
L 357.756757 69.725677 
L 357.756757 56.047552 
L 347.394257 56.047552 
z
" style="fill:#1f77b4;opacity:0.15;stroke:#000000;stroke-linejoin:miter;"/>
    </g>
    <!-- 1 -->
    <defs>
     <path d="M 6.5 8.296875 
L 22.609375 8.296875 
L 33.5 64.40625 
L 15.28125 60.890625 
L 17 69.390625 
L 35.109375 72.90625 
L 45.015625 72.90625 
L 32.421875 8.296875 
L 48.484375 8.296875 
L 46.921875 0 
L 4.890625 0 
z
" id="DejaVuSans-Oblique-49"/>
    </defs>
    <g transform="translate(349.394257 65.645989)scale(0.1 -0.1)">
     <use xlink:href="#DejaVuSans-Oblique-49"/>
    </g>
   </g>
   <g id="text_54">
    <!-- .1 -->
    <defs>
     <path d="M 8.203125 12.40625 
L 18.5 12.40625 
L 16.109375 0 
L 5.8125 0 
z
" id="DejaVuSans-Oblique-46"/>
    </defs>
    <g transform="translate(406.660769 65.645989)scale(0.1 -0.1)">
     <use xlink:href="#DejaVuSans-Oblique-46"/>
     <use x="31.787109" xlink:href="#DejaVuSans-Oblique-49"/>
    </g>
   </g>
  </g>
 </g>
 <defs>
  <clipPath id="pa21376a1fd">
   <rect height="291.6" width="475.285039" x="32.35748" y="16.2"/>
  </clipPath>
 </defs>
</svg>
